GIL12_fast2_RRA_states
nRows=4
nColumns=47

# SIMM Motion File Header:
name GIL12_fast2_RRA_states
datacolumns 47
datarows 4
otherdata 1
range 0.28267000000000014000 0.28417000000000014000
endheader
time	pelvis_tx	pelvis_ty	pelvis_tz	pelvis_tilt	pelvis_list	pelvis_rotation	hip_flexion_r	hip_adduction_r	hip_rotation_r	knee_angle_r	ankle_angle_r	subtalar_angle_r	mtp_angle_r	hip_flexion_l	hip_adduction_l	hip_rotation_l	knee_angle_l	ankle_angle_l	subtalar_angle_l	mtp_angle_l	lumbar_extension	lumbar_bending	lumbar_rotation	pelvis_tx_u	pelvis_ty_u	pelvis_tz_u	pelvis_tilt_u	pelvis_list_u	pelvis_rotation_u	hip_flexion_r_u	hip_adduction_r_u	hip_rotation_r_u	knee_angle_r_u	ankle_angle_r_u	subtalar_angle_r_u	mtp_angle_r_u	hip_flexion_l_u	hip_adduction_l_u	hip_rotation_l_u	knee_angle_l_u	ankle_angle_l_u	subtalar_angle_l_u	mtp_angle_l_u	lumbar_extension_u	lumbar_bending_u	lumbar_rotation_u
      0.28267000000000014000	      0.82271561953019701000	      0.68854720843702810000	     -0.26527237714594482000	      0.77553347141351692000	     -0.06480297205675443500	     -1.40968216532847030000	    -11.89098840579630700000	      1.29910188483199770000	     -0.82847758704832597000	      1.20056150362138880000	      5.32701792991621130000	      0.00000000000002112984	     -0.00000000000005819405	     22.92636503137320500000	     -3.86589771902297660000	     -8.43851682141110620000	    -32.62555809814222800000	      0.96940496917277341000	     -0.00000000000000079965	     -0.00000000000000202838	    -20.33225353777185500000	     -1.44969447035255070000	      1.89249841446584940000	      1.37875355624270890000	     -0.21265917486969568000	     -0.10896306557326106000	     27.66910869475416500000	      6.44609432407112860000	    -50.90021138467502500000	   -192.01653390581734000000	    -27.93508664309832700000	    -54.62852680897960800000	     69.56375481804306600000	     37.27164136227738600000	      0.00000000000031469270	     -0.00000000000043288466	     66.64936914679084600000	     -6.26452041249248380000	    -12.47284440200579600000	    396.95917826625458000000	     13.67833278490480000000	     -0.00000000000001341623	     -0.00000000000001228258	    -32.97000881691164400000	     -0.38766052040376620000	      9.79191649058461880000
      0.28317000000000014000	      0.82340508702372017000	      0.68844031652286686000	     -0.26532692179434336000	      0.78937205835022317000	     -0.06162031128239612400	     -1.43520765771750210000	    -11.98691715800480800000	      1.28515683271157120000	     -0.85567731911050682000	      1.23512485498428860000	      5.34576678253798840000	      0.00000000000002129053	     -0.00000000000005842426	     22.95950741558639800000	     -3.86908016283304200000	     -8.44498982979133040000	    -32.42684885178106000000	      0.97592958958722376000	     -0.00000000000000080665	     -0.00000000000000203409	    -20.34873600643501500000	     -1.44983308936710160000	      1.89746451767425330000	      1.37911819138465690000	     -0.21490649144660129000	     -0.10921393807388531000	     27.68510993027912900000	      6.28479274879657890000	    -51.20116433906948600000	   -191.69878878916035000000	    -27.84535948345349300000	    -54.16831884228904700000	     68.69024651699284300000	     37.72294075353581600000	      0.00000000000032955655	     -0.00000000000048988402	     65.92100951477414100000	     -6.46505164657908440000	    -13.41817862662117200000	    397.87362438290467000000	     12.42151885514873800000	     -0.00000000000001342216	     -0.00000000000001451002	    -32.95933852140073100000	     -0.16785238305660283000	     10.07310819284880000000
      0.28367000000000014000	      0.82409473949604251000	      0.68833230394202860000	     -0.26538158949976814000	      0.80321845652770396000	     -0.05851793254674275700	     -1.46088273141259180000	    -12.08268751246667000000	      1.27125628811768720000	     -0.88264381215882648000	      1.26925234193338500000	      5.36474023786609330000	      0.00000000000002145155	     -0.00000000000005865629	     22.99228688720756300000	     -3.87236255860591470000	     -8.45193396851529680000	    -32.22768867791035100000	      0.98182789947820392000	     -0.00000000000000081307	     -0.00000000000000204199	    -20.36521235378500400000	     -1.44986336031811640000	      1.90257212931650080000	      1.37949347281504650000	     -0.21714182658034692000	     -0.10945530470593437000	     27.70036224596975000000	      6.12497192901986940000	    -51.49852736472779900000	   -191.38295133438419000000	    -27.75705570478149300000	    -53.69554885808045000000	     67.82029004096590100000	     38.17044355667950100000	      0.00000000000031789219	     -0.00000000000044167782	     65.19772872238647200000	     -6.66431030206119510000	    -14.35732235680850100000	    398.76284440489263000000	     11.17317546268216500000	     -0.00000000000001212078	     -0.00000000000001827750	    -32.94553318143421400000	      0.04572999556613248400	     10.35793946684760100000
      0.28417000000000014000	      0.82478458227235407000	      0.68822317670760702000	     -0.26543637552574084000	      0.81707229750820554000	     -0.05549509690839246600	     -1.48670555851210380000	    -12.17830042690203400000	      1.25739954097076350000	     -0.90937082997213026000	      1.30294573975715130000	      5.38393655641287690000	      0.00000000000002160484	     -0.00000000000005886939	     23.02470601568343500000	     -3.87574426020723850000	     -8.45934602058841810000	    -32.02809028685780400000	      0.98710429783089204000	     -0.00000000000000081898	     -0.00000000000000205167	    -20.38168101933041500000	     -1.44978839007304040000	      1.90782303923562550000	      1.37987940863730650000	     -0.21936509082249167000	     -0.10968723050812616000	     27.71487612287982600000	      5.96660605248996220000	    -51.79213129410887000000	   -191.06901957002995000000	    -27.67016832381802200000	    -53.21055046950450400000	     66.95390256730007600000	     38.61392843471423200000	      0.00000000000029476122	     -0.00000000000040716415	     64.47967680446510000000	     -6.86229128607588650000	    -15.28967521011632500000	    399.62638645512919000000	      9.93403097656192280000	     -0.00000000000001146980	     -0.00000000000001996466	    -32.92860626159471600000	      0.25312761582753507000	     10.64626358515849500000
